<svg width="25" height="25" viewBox="0 0 25 25" fill="none" xmlns="http://www.w3.org/2000/svg">
<path d="M10.7954 3.125C9.27835 3.125 7.79535 3.57486 6.53396 4.4177C5.27257 5.26053 4.28943 6.45849 3.70888 7.86007C3.12832 9.26165 2.97642 10.8039 3.27239 12.2918C3.56835 13.7797 4.29889 15.1465 5.37161 16.2192C6.44434 17.2919 7.81108 18.0225 9.29899 18.3184C10.7869 18.6144 12.3292 18.4625 13.7308 17.8819C15.1323 17.3014 16.3303 16.3183 17.1731 15.0569C18.016 13.7955 18.4658 12.3125 18.4658 10.7954C18.4657 8.76113 17.6575 6.81021 16.2191 5.37175C14.7806 3.9333 12.8297 3.12513 10.7954 3.125Z" stroke="#9C9A9A" stroke-width="1.5" stroke-miterlimit="10"/>
<path d="M16.5181 16.5181L21.875 21.875" stroke="#9C9A9A" stroke-width="1.5" stroke-miterlimit="10" stroke-linecap="round"/>
</svg>
